<?xml version="1.0" standalone="no"?>
<!DOCTYPE svg PUBLIC "-//W3C//DTD SVG 20010904//EN"
 "http://www.w3.org/TR/2001/REC-SVG-20010904/DTD/svg10.dtd">
<svg version="1.0" xmlns="http://www.w3.org/2000/svg"
 width="1024.000000pt" height="1024.000000pt" viewBox="0 0 1024.000000 1024.000000"
 preserveAspectRatio="xMidYMid meet">

<g transform="translate(0.000000,1024.000000) scale(0.100000,-0.100000)"
fill="#000000" stroke="none">
<path d="M4836 8960 c-541 -42 -1010 -173 -1481 -413 -496 -253 -917 -597
-1267 -1035 -550 -688 -830 -1543 -805 -2457 17 -613 152 -1150 421 -1670 196
-379 409 -669 715 -975 418 -417 914 -722 1481 -910 266 -89 520 -145 820
-182 139 -17 659 -17 805 0 1143 134 2145 737 2787 1677 500 731 730 1670 632
2575 -67 623 -266 1183 -597 1680 -641 963 -1646 1569 -2812 1695 -170 19
-550 27 -699 15z m704 -384 c812 -100 1511 -436 2070 -996 577 -578 906 -1286
991 -2133 23 -233 -4 -860 -40 -925 -4 -8 -21 34 -41 100 -137 469 -295 793
-550 1123 -93 120 -87 111 -140 260 -69 197 -149 345 -280 520 -169 225 -284
283 -385 194 -52 -46 -98 -149 -194 -436 l-86 -258 -40 -12 c-168 -48 -230
-70 -300 -105 -198 -99 -333 -243 -438 -468 -133 -287 -141 -299 -337 -457
-46 -38 -97 -87 -113 -109 -60 -86 -42 -240 52 -429 113 -227 249 -339 533
-437 165 -57 207 -78 241 -117 40 -48 50 -93 45 -195 -13 -226 -135 -458 -490
-931 -302 -402 -405 -588 -518 -930 -23 -71 -48 -136 -54 -143 -28 -29 -585
-25 -770 6 l-39 7 -84 235 c-117 331 -346 1012 -387 1155 -120 416 -179 752
-180 1020 -1 181 9 258 50 379 31 91 63 143 117 193 76 70 128 75 419 42 227
-26 436 -22 566 10 312 78 562 310 777 723 134 257 159 379 100 486 -49 91
-85 112 -374 227 -303 120 -490 218 -589 310 -70 64 -115 146 -162 290 -18 55
-49 134 -70 176 -280 567 -1050 843 -1725 618 -338 -113 -696 -419 -968 -827
-173 -261 -237 -440 -237 -666 0 -173 38 -297 136 -448 l47 -73 -12 -70 c-20
-121 -107 -361 -191 -530 -82 -165 -197 -358 -215 -359 -40 -4 -56 726 -22
969 61 426 163 769 332 1110 171 345 381 633 674 925 416 414 961 727 1531
878 209 56 502 103 710 116 132 8 519 -3 640 -18z m-1698 -1247 c228 -45 444
-156 598 -308 100 -99 136 -160 195 -335 84 -251 165 -368 324 -471 40 -26
155 -87 255 -136 99 -48 203 -101 231 -116 l49 -28 1 -85 c2 -110 34 -188 109
-258 28 -27 58 -51 66 -54 20 -7 -20 -90 -84 -175 -62 -82 -230 -240 -300
-282 -186 -111 -398 -134 -787 -85 -232 29 -311 28 -412 -9 -126 -46 -208
-125 -276 -267 -137 -285 -145 -694 -26 -1289 61 -300 112 -491 314 -1164 78
-258 141 -473 141 -478 0 -11 -20 -7 -170 38 -153 45 -365 130 -525 210 -353
176 -597 353 -881 637 -235 236 -396 441 -558 713 -80 134 -199 379 -253 518
-33 88 -38 110 -38 185 1 80 3 90 44 170 24 47 72 134 108 193 150 254 268
526 321 739 l28 111 123 -136 c127 -141 213 -213 316 -265 201 -100 390 -100
547 1 131 85 213 183 299 362 110 228 163 464 163 735 0 305 -71 631 -155 708
-27 26 -90 30 -113 6 -27 -27 -28 -55 -6 -210 51 -361 34 -559 -75 -894 -53
-161 -96 -253 -158 -336 -109 -147 -214 -175 -372 -99 -112 54 -175 116 -507
499 -129 149 -171 244 -171 386 0 75 5 112 26 175 96 294 427 733 680 904 280
188 602 254 929 190z m3498 -1056 c39 -47 131 -228 203 -399 67 -158 99 -214
187 -324 312 -393 512 -942 561 -1545 19 -237 -1 -352 -92 -525 -75 -143 -220
-361 -336 -505 -107 -133 -322 -356 -452 -469 -399 -345 -923 -616 -1435 -741
-59 -14 -110 -24 -113 -21 -7 7 34 126 84 245 78 182 178 344 384 621 184 247
263 370 339 525 116 237 167 429 157 595 -9 143 -57 237 -162 317 -83 62 -127
83 -316 148 -196 67 -274 111 -360 202 -100 107 -121 168 -75 227 39 53 56 93
56 139 0 42 3 46 81 113 142 121 182 177 296 406 75 151 93 178 159 248 42 44
97 93 124 110 68 44 198 89 319 111 62 11 112 26 124 37 29 25 76 134 147 340
38 110 68 182 76 182 7 0 27 -17 44 -37z"/>
<path d="M4346 6490 c-41 -13 -73 -46 -92 -96 -29 -76 2 -148 76 -178 53 -21
83 -20 128 3 50 26 72 67 72 133 0 110 -79 169 -184 138z"/>
<path d="M6555 5223 c-32 -8 -74 -42 -90 -73 -30 -58 -11 -155 34 -180 60 -32
167 7 206 74 66 113 -17 212 -150 179z"/>
<path d="M6446 4661 c12 -11 646 -171 679 -171 55 0 11 41 -93 84 -77 33 -238
72 -352 86 -103 12 -248 13 -234 1z"/>
<path d="M6366 4521 c5 -4 59 -30 119 -57 116 -51 168 -79 358 -189 64 -37
121 -65 124 -61 13 12 -12 40 -98 109 -99 80 -172 126 -255 156 -93 36 -275
66 -248 42z"/>
</g>
</svg>
